<?xml version="1.0" encoding="UTF-8"?>
<svg xmlns="http://www.w3.org/2000/svg" xmlns:xlink="http://www.w3.org/1999/xlink" width="200" height="200" viewBox="0 0 200 200" version="1.1">
<defs>
<linearGradient id="linear0" gradientUnits="userSpaceOnUse" x1="22.0034" y1="89.986" x2="157.98" y2="89.986" gradientTransform="matrix(1.111111,0,0,1.111111,0,0)">
<stop offset="0.02" style="stop-color:rgb(16.470588%,73.72549%,94.509804%);stop-opacity:1;"/>
<stop offset="1" style="stop-color:rgb(41.568627%,30.196078%,89.019608%);stop-opacity:1;"/>
</linearGradient>
</defs>
<g id="surface1">
<path style=" stroke:none;fill-rule:nonzero;fill:rgb(9.019608%,10.980392%,19.607843%);fill-opacity:1;" d="M 48.890625 0 L 151.109375 0 C 178.113281 0 200 21.886719 200 48.890625 L 200 151.109375 C 200 178.113281 178.113281 200 151.109375 200 L 48.890625 200 C 21.886719 200 0 178.113281 0 151.109375 L 0 48.890625 C 0 21.886719 21.886719 0 48.890625 0 Z M 48.890625 0 "/>
<path style=" stroke:none;fill-rule:nonzero;fill:url(#linear0);" d="M 60 83.40625 C 60 81.917969 60.4375 80.464844 61.257812 79.226562 C 62.082031 77.988281 63.246094 77.023438 64.613281 76.457031 C 65.976562 75.886719 67.480469 75.738281 68.929688 76.03125 C 70.378906 76.320312 71.710938 77.039062 72.753906 78.089844 C 73.796875 79.144531 74.507812 80.484375 74.792969 81.945312 C 75.082031 83.40625 74.933594 84.917969 74.367188 86.292969 C 73.796875 87.667969 72.839844 88.839844 71.609375 89.664062 C 70.378906 90.492188 68.9375 90.929688 67.457031 90.929688 C 65.480469 90.925781 63.582031 90.132812 62.183594 88.722656 C 60.785156 87.3125 60 85.398438 60 83.40625 Z M 57.4375 127.960938 C 51.546875 123.089844 46.152344 117.636719 41.339844 111.683594 C 46.269531 106.167969 51.625 101.054688 57.355469 96.390625 C 57.644531 96.148438 57.886719 95.855469 58.0625 95.523438 C 58.238281 95.191406 58.347656 94.824219 58.382812 94.449219 C 58.417969 94.074219 58.382812 93.695312 58.273438 93.335938 C 58.164062 92.976562 57.984375 92.640625 57.746094 92.347656 C 57.507812 92.058594 57.21875 91.816406 56.886719 91.636719 C 56.554688 91.460938 56.195312 91.351562 55.820312 91.3125 C 55.449219 91.277344 55.074219 91.316406 54.714844 91.425781 C 54.359375 91.535156 54.023438 91.714844 53.734375 91.953125 C 48.101562 96.554688 42.816406 101.566406 37.914062 106.945312 C 32.996094 99.425781 31.339844 92.96875 33.726562 88.824219 C 36.113281 84.679688 42.347656 82.878906 51.523438 83.425781 C 52.273438 83.464844 53.011719 83.207031 53.570312 82.699219 C 54.132812 82.195312 54.472656 81.488281 54.515625 80.730469 C 54.5625 79.976562 54.308594 79.234375 53.808594 78.664062 C 53.3125 78.097656 52.613281 77.75 51.863281 77.699219 C 40.257812 77.003906 32.316406 79.851562 28.777344 85.988281 C 26.578125 89.839844 25.269531 96.730469 31.628906 107.664062 C 32.359375 108.925781 33.183594 110.222656 34.085938 111.527344 C 25.25 122.714844 22.265625 132.394531 26.054688 138.996094 C 28.914062 143.976562 35.074219 146.515625 44.117188 146.515625 C 47.484375 146.492188 50.84375 146.207031 54.167969 145.65625 C 54.914062 145.539062 55.585938 145.125 56.03125 144.511719 C 56.476562 143.894531 56.660156 143.125 56.542969 142.371094 C 56.425781 141.617188 56.015625 140.945312 55.40625 140.496094 C 54.792969 140.046875 54.03125 139.859375 53.28125 139.980469 C 41.574219 141.824219 33.460938 140.414062 31 136.125 C 28.871094 132.414062 30.628906 125.472656 37.636719 116.25 C 42.503906 122.132812 47.90625 127.542969 53.777344 132.40625 C 54.289062 132.839844 54.9375 133.078125 55.609375 133.078125 C 56.195312 133.078125 56.765625 132.898438 57.25 132.5625 C 57.730469 132.222656 58.09375 131.742188 58.296875 131.1875 C 58.496094 130.632812 58.519531 130.027344 58.367188 129.457031 C 58.214844 128.886719 57.890625 128.378906 57.4375 128 Z M 65.71875 96.566406 C 65.34375 96.5625 64.972656 96.636719 64.625 96.777344 C 64.277344 96.921875 63.960938 97.132812 63.695312 97.398438 C 63.429688 97.664062 63.21875 97.984375 63.074219 98.332031 C 62.933594 98.683594 62.859375 99.058594 62.859375 99.433594 L 62.859375 99.984375 C 62.859375 107.796875 63.230469 115.527344 63.949219 122.996094 C 64.019531 123.707031 64.347656 124.367188 64.871094 124.847656 C 65.398438 125.328125 66.082031 125.59375 66.789062 125.597656 L 67.066406 125.597656 C 67.8125 125.519531 68.5 125.152344 68.980469 124.570312 C 69.457031 123.988281 69.691406 123.242188 69.628906 122.488281 C 68.929688 115.238281 68.601562 107.652344 68.601562 100.027344 L 68.601562 99.496094 C 68.609375 99.113281 68.539062 98.730469 68.398438 98.375 C 68.257812 98.015625 68.046875 97.691406 67.777344 97.421875 C 67.507812 97.148438 67.1875 96.933594 66.832031 96.785156 C 66.480469 96.640625 66.101562 96.570312 65.71875 96.574219 Z M 108.554688 118.664062 C 100.40625 123.265625 91.992188 127.367188 83.351562 130.941406 C 82.742188 131.199219 82.234375 131.65625 81.921875 132.242188 C 81.609375 132.828125 81.507812 133.507812 81.636719 134.160156 C 81.761719 134.8125 82.109375 135.402344 82.621094 135.828125 C 83.128906 136.253906 83.769531 136.484375 84.433594 136.488281 C 84.800781 136.484375 85.167969 136.410156 85.511719 136.269531 C 94.363281 132.601562 102.984375 128.402344 111.332031 123.691406 C 111.949219 123.296875 112.390625 122.679688 112.570312 121.96875 C 112.753906 121.253906 112.65625 120.5 112.300781 119.859375 C 111.945312 119.214844 111.359375 118.734375 110.664062 118.511719 C 109.964844 118.289062 109.210938 118.34375 108.554688 118.664062 Z M 173.960938 52.984375 C 169.660156 45.496094 158.109375 43.535156 140.527344 47.328125 C 133.980469 48.78125 127.542969 50.691406 121.257812 53.046875 C 120.152344 48.109375 118.75 43.238281 117.0625 38.46875 C 111.117188 22.027344 103.320312 13.332031 94.460938 13.332031 C 78.597656 13.332031 68.929688 40.988281 65.152344 66.871094 C 65.042969 67.625 65.238281 68.390625 65.691406 69.003906 C 66.140625 69.613281 66.816406 70.019531 67.566406 70.128906 C 68.316406 70.238281 69.078125 70.042969 69.683594 69.589844 C 70.289062 69.132812 70.691406 68.453125 70.800781 67.699219 C 74.96875 39.070312 84.699219 19.082031 94.460938 19.082031 C 100.519531 19.082031 106.804688 26.863281 111.652344 40.429688 C 113.34375 45.234375 114.738281 50.140625 115.828125 55.121094 C 105.28125 59.410156 95.050781 64.449219 85.214844 70.207031 C 83.527344 71.242188 81.796875 72.214844 80.070312 73.316406 C 79.75 73.511719 79.472656 73.769531 79.25 74.074219 C 79.027344 74.375 78.867188 74.722656 78.78125 75.089844 C 78.691406 75.457031 78.675781 75.835938 78.730469 76.210938 C 78.789062 76.582031 78.917969 76.941406 79.113281 77.261719 C 79.308594 77.585938 79.5625 77.867188 79.867188 78.089844 C 80.167969 78.3125 80.511719 78.472656 80.875 78.5625 C 81.238281 78.652344 81.617188 78.667969 81.988281 78.609375 C 82.355469 78.550781 82.710938 78.421875 83.03125 78.226562 C 84.730469 77.191406 86.417969 76.152344 88.0625 75.222656 C 97.367188 69.773438 107.03125 64.980469 116.988281 60.871094 C 119.066406 72.5 120.179688 84.285156 120.324219 96.097656 C 120.335938 96.851562 120.640625 97.574219 121.171875 98.101562 C 121.707031 98.632812 122.425781 98.925781 123.171875 98.925781 L 123.222656 98.925781 C 123.980469 98.910156 124.699219 98.59375 125.222656 98.046875 C 125.75 97.5 126.042969 96.765625 126.03125 96.003906 C 125.882812 83.515625 124.664062 71.058594 122.390625 58.777344 C 146.875 49.660156 165.019531 49.015625 168.96875 55.90625 C 171.132812 59.679688 169.226562 66.113281 163.609375 74.007812 C 157.5 82.535156 147.675781 92.078125 135.167969 101.402344 C 134.867188 101.628906 134.613281 101.910156 134.421875 102.234375 C 134.230469 102.558594 134.101562 102.917969 134.046875 103.292969 C 133.992188 103.664062 134.011719 104.046875 134.101562 104.410156 C 134.195312 104.777344 134.359375 105.121094 134.582031 105.425781 C 134.804688 105.726562 135.085938 105.980469 135.40625 106.175781 C 135.726562 106.371094 136.085938 106.496094 136.457031 106.550781 C 136.824219 106.605469 137.203125 106.585938 137.566406 106.496094 C 137.929688 106.402344 138.273438 106.238281 138.570312 106.015625 C 151.554688 96.273438 161.8125 86.328125 168.238281 77.304688 C 173.199219 70.320312 178.199219 60.476562 173.960938 52.984375 Z M 138.738281 118.457031 C 138.164062 117.960938 137.417969 117.714844 136.664062 117.769531 C 135.910156 117.828125 135.207031 118.183594 134.714844 118.757812 C 134.222656 119.335938 133.972656 120.085938 134.03125 120.847656 C 134.085938 121.605469 134.441406 122.3125 135.011719 122.808594 C 152.5 137.949219 161.347656 153.117188 157.089844 160.546875 C 154.148438 165.726562 144.890625 167.3125 131.691406 165.023438 C 126.757812 164.136719 121.890625 162.90625 117.125 161.34375 C 120.734375 150.714844 123.179688 139.714844 124.417969 128.550781 C 124.511719 127.792969 124.300781 127.035156 123.835938 126.433594 C 123.371094 125.832031 122.6875 125.441406 121.9375 125.347656 C 121.1875 125.253906 120.429688 125.464844 119.835938 125.933594 C 119.238281 126.402344 118.851562 127.089844 118.761719 127.84375 C 117.566406 138.621094 115.207031 149.230469 111.722656 159.488281 C 101.914062 155.820312 92.433594 151.3125 83.382812 146.019531 C 82.730469 145.691406 81.976562 145.625 81.277344 145.835938 C 80.578125 146.046875 79.988281 146.519531 79.625 147.15625 C 79.257812 147.792969 79.152344 148.546875 79.320312 149.261719 C 79.488281 149.976562 79.921875 150.601562 80.53125 151.003906 C 89.816406 156.429688 99.542969 161.054688 109.605469 164.824219 C 109.296875 165.53125 108.988281 166.214844 108.667969 166.898438 C 104.347656 175.941406 99.316406 180.917969 94.511719 180.917969 C 87.558594 180.917969 80.410156 170.722656 75.398438 153.644531 C 75.292969 153.285156 75.117188 152.945312 74.878906 152.652344 C 74.644531 152.359375 74.351562 152.117188 74.023438 151.9375 C 73.695312 151.757812 73.332031 151.644531 72.960938 151.605469 C 72.585938 151.566406 72.210938 151.601562 71.851562 151.707031 C 71.492188 151.816406 71.15625 151.992188 70.867188 152.230469 C 70.574219 152.46875 70.332031 152.761719 70.152344 153.09375 C 69.976562 153.425781 69.863281 153.789062 69.824219 154.164062 C 69.785156 154.542969 69.820312 154.921875 69.925781 155.28125 C 75.871094 175.519531 84.605469 186.667969 94.511719 186.667969 C 101.714844 186.667969 108.402344 180.6875 113.8125 169.394531 C 114.222656 168.535156 114.625 167.632812 115.015625 166.722656 C 120.152344 168.421875 125.398438 169.753906 130.722656 170.710938 C 134.511719 171.382812 138.347656 171.730469 142.191406 171.746094 C 151.988281 171.746094 158.878906 168.898438 162.027344 163.394531 C 167.921875 153.054688 159.207031 136.25 138.6875 118.457031 Z M 112.238281 99.519531 L 110.4375 98.480469 C 101.902344 93.492188 93 89.171875 83.804688 85.5625 C 83.109375 85.332031 82.351562 85.378906 81.6875 85.695312 C 81.023438 86.011719 80.507812 86.570312 80.246094 87.261719 C 79.980469 87.949219 79.988281 88.714844 80.269531 89.398438 C 80.546875 90.078125 81.078125 90.628906 81.746094 90.929688 C 90.664062 94.429688 99.296875 98.625 107.566406 103.476562 L 109.316406 104.511719 C 109.753906 104.777344 110.253906 104.917969 110.765625 104.917969 C 111.414062 104.945312 112.046875 104.753906 112.570312 104.371094 C 113.09375 103.988281 113.472656 103.4375 113.640625 102.808594 C 113.8125 102.179688 113.765625 101.515625 113.511719 100.914062 C 113.257812 100.316406 112.808594 99.824219 112.238281 99.519531 Z M 76.675781 138.703125 C 76.675781 137.21875 76.238281 135.765625 75.417969 134.53125 C 74.597656 133.296875 73.433594 132.332031 72.070312 131.765625 C 70.707031 131.195312 69.210938 131.046875 67.761719 131.335938 C 66.316406 131.625 64.988281 132.34375 63.945312 133.390625 C 62.902344 134.441406 62.191406 135.78125 61.902344 137.238281 C 61.613281 138.695312 61.761719 140.207031 62.328125 141.578125 C 62.890625 142.953125 63.847656 144.125 65.074219 144.949219 C 66.300781 145.777344 67.742188 146.214844 69.21875 146.214844 C 71.195312 146.214844 73.09375 145.425781 74.492188 144.015625 C 75.890625 142.609375 76.675781 140.695312 76.675781 138.703125 Z M 130.671875 112.179688 C 130.675781 110.691406 130.238281 109.234375 129.417969 107.996094 C 128.597656 106.757812 127.433594 105.792969 126.070312 105.222656 C 124.703125 104.652344 123.203125 104.5 121.753906 104.789062 C 120.304688 105.078125 118.972656 105.796875 117.925781 106.847656 C 116.882812 107.898438 116.167969 109.238281 115.878906 110.699219 C 115.589844 112.15625 115.738281 113.671875 116.300781 115.046875 C 116.867188 116.421875 117.824219 117.59375 119.054688 118.421875 C 120.28125 119.25 121.726562 119.691406 123.203125 119.691406 C 124.1875 119.691406 125.160156 119.496094 126.066406 119.117188 C 126.972656 118.738281 127.796875 118.183594 128.492188 117.480469 C 129.1875 116.78125 129.734375 115.949219 130.109375 115.035156 C 130.484375 114.117188 130.675781 113.136719 130.671875 112.148438 Z M 130.671875 112.179688 "/>
</g>
</svg>
