<svg width="295" height="56" viewBox="0 0 295 56" fill="none" xmlns="http://www.w3.org/2000/svg">
<path d="M91.74 28.112C93.156 28.376 94.32 29.084 95.232 30.236C96.144 31.388 96.6 32.708 96.6 34.196C96.6 35.54 96.264 36.728 95.592 37.76C94.944 38.768 93.996 39.56 92.748 40.136C91.5 40.712 90.024 41 88.32 41H77.484V15.872H87.852C89.556 15.872 91.02 16.148 92.244 16.7C93.492 17.252 94.428 18.02 95.052 19.004C95.7 19.988 96.024 21.104 96.024 22.352C96.024 23.816 95.628 25.04 94.836 26.024C94.068 27.008 93.036 27.704 91.74 28.112ZM82.524 26.24H87.132C88.332 26.24 89.256 25.976 89.904 25.448C90.552 24.896 90.876 24.116 90.876 23.108C90.876 22.1 90.552 21.32 89.904 20.768C89.256 20.216 88.332 19.94 87.132 19.94H82.524V26.24ZM87.6 36.896C88.824 36.896 89.772 36.608 90.444 36.032C91.14 35.456 91.488 34.64 91.488 33.584C91.488 32.504 91.128 31.664 90.408 31.064C89.688 30.44 88.716 30.128 87.492 30.128H82.524V36.896H87.6ZM118.941 23.648C118.941 24.992 118.617 26.252 117.969 27.428C117.345 28.604 116.349 29.552 114.981 30.272C113.637 30.992 111.933 31.352 109.869 31.352H105.657V41H100.617V15.872H109.869C111.813 15.872 113.469 16.208 114.837 16.88C116.205 17.552 117.225 18.476 117.897 19.652C118.593 20.828 118.941 22.16 118.941 23.648ZM109.653 27.284C111.045 27.284 112.077 26.972 112.749 26.348C113.421 25.7 113.757 24.8 113.757 23.648C113.757 21.2 112.389 19.976 109.653 19.976H105.657V27.284H109.653ZM153.669 15.872L144.453 41H138.333L129.117 15.872H134.517L141.429 35.852L148.305 15.872H153.669ZM175.231 30.596C175.231 31.316 175.183 31.964 175.087 32.54H160.507C160.627 33.98 161.131 35.108 162.019 35.924C162.907 36.74 163.999 37.148 165.295 37.148C167.167 37.148 168.499 36.344 169.291 34.736H174.727C174.151 36.656 173.047 38.24 171.415 39.488C169.783 40.712 167.779 41.324 165.403 41.324C163.483 41.324 161.755 40.904 160.219 40.064C158.707 39.2 157.519 37.988 156.655 36.428C155.815 34.868 155.395 33.068 155.395 31.028C155.395 28.964 155.815 27.152 156.655 25.592C157.495 24.032 158.671 22.832 160.183 21.992C161.695 21.152 163.435 20.732 165.403 20.732C167.299 20.732 168.991 21.14 170.479 21.956C171.991 22.772 173.155 23.936 173.971 25.448C174.811 26.936 175.231 28.652 175.231 30.596ZM170.011 29.156C169.987 27.86 169.519 26.828 168.607 26.06C167.695 25.268 166.579 24.872 165.259 24.872C164.011 24.872 162.955 25.256 162.091 26.024C161.251 26.768 160.735 27.812 160.543 29.156H170.011ZM189.962 20.768C192.338 20.768 194.258 21.524 195.722 23.036C197.186 24.524 197.918 26.612 197.918 29.3V41H192.878V29.984C192.878 28.4 192.482 27.188 191.69 26.348C190.898 25.484 189.818 25.052 188.45 25.052C187.058 25.052 185.954 25.484 185.138 26.348C184.346 27.188 183.95 28.4 183.95 29.984V41H178.91V21.056H183.95V23.54C184.622 22.676 185.474 22.004 186.506 21.524C187.562 21.02 188.714 20.768 189.962 20.768ZM208.579 25.196V34.844C208.579 35.516 208.735 36.008 209.047 36.32C209.383 36.608 209.935 36.752 210.703 36.752H213.043V41H209.875C205.627 41 203.503 38.936 203.503 34.808V25.196H201.127V21.056H203.503V16.124H208.579V21.056H213.043V25.196H208.579ZM235.496 21.056V41H230.42V38.48C229.772 39.344 228.92 40.028 227.864 40.532C226.832 41.012 225.704 41.252 224.48 41.252C222.92 41.252 221.54 40.928 220.34 40.28C219.14 39.608 218.192 38.636 217.496 37.364C216.824 36.068 216.488 34.532 216.488 32.756V21.056H221.528V32.036C221.528 33.62 221.924 34.844 222.716 35.708C223.508 36.548 224.588 36.968 225.956 36.968C227.348 36.968 228.44 36.548 229.232 35.708C230.024 34.844 230.42 33.62 230.42 32.036V21.056H235.496ZM245.508 24.152C246.156 23.096 246.996 22.268 248.028 21.668C249.084 21.068 250.284 20.768 251.628 20.768V26.06H250.296C248.712 26.06 247.512 26.432 246.696 27.176C245.904 27.92 245.508 29.216 245.508 31.064V41H240.468V21.056H245.508V24.152ZM273.563 30.596C273.563 31.316 273.515 31.964 273.419 32.54H258.839C258.959 33.98 259.463 35.108 260.351 35.924C261.239 36.74 262.331 37.148 263.627 37.148C265.499 37.148 266.831 36.344 267.623 34.736H273.059C272.483 36.656 271.379 38.24 269.747 39.488C268.115 40.712 266.111 41.324 263.735 41.324C261.815 41.324 260.087 40.904 258.551 40.064C257.039 39.2 255.851 37.988 254.987 36.428C254.147 34.868 253.727 33.068 253.727 31.028C253.727 28.964 254.147 27.152 254.987 25.592C255.827 24.032 257.003 22.832 258.515 21.992C260.027 21.152 261.767 20.732 263.735 20.732C265.631 20.732 267.323 21.14 268.811 21.956C270.323 22.772 271.487 23.936 272.303 25.448C273.143 26.936 273.563 28.652 273.563 30.596ZM268.343 29.156C268.319 27.86 267.851 26.828 266.939 26.06C266.027 25.268 264.911 24.872 263.591 24.872C262.343 24.872 261.287 25.256 260.423 26.024C259.583 26.768 259.067 27.812 258.875 29.156H268.343ZM284.874 41.324C283.242 41.324 281.778 41.036 280.482 40.46C279.186 39.86 278.154 39.056 277.386 38.048C276.642 37.04 276.234 35.924 276.162 34.7H281.238C281.334 35.468 281.706 36.104 282.354 36.608C283.026 37.112 283.854 37.364 284.838 37.364C285.798 37.364 286.542 37.172 287.07 36.788C287.622 36.404 287.898 35.912 287.898 35.312C287.898 34.664 287.562 34.184 286.89 33.872C286.242 33.536 285.198 33.176 283.758 32.792C282.27 32.432 281.046 32.06 280.086 31.676C279.15 31.292 278.334 30.704 277.638 29.912C276.966 29.12 276.63 28.052 276.63 26.708C276.63 25.604 276.942 24.596 277.566 23.684C278.214 22.772 279.126 22.052 280.302 21.524C281.502 20.996 282.906 20.732 284.514 20.732C286.89 20.732 288.786 21.332 290.202 22.532C291.618 23.708 292.398 25.304 292.542 27.32H287.718C287.646 26.528 287.31 25.904 286.71 25.448C286.134 24.968 285.354 24.728 284.37 24.728C283.458 24.728 282.75 24.896 282.246 25.232C281.766 25.568 281.526 26.036 281.526 26.636C281.526 27.308 281.862 27.824 282.534 28.184C283.206 28.52 284.25 28.868 285.666 29.228C287.106 29.588 288.294 29.96 289.23 30.344C290.166 30.728 290.97 31.328 291.642 32.144C292.338 32.936 292.698 33.992 292.722 35.312C292.722 36.464 292.398 37.496 291.75 38.408C291.126 39.32 290.214 40.04 289.014 40.568C287.838 41.072 286.458 41.324 284.874 41.324Z" fill="#040348"/>
<path d="M37.1174 0H18.5587V18.6667H0V37.3333H18.5587V56H37.1174V37.3333H18.5587V18.6667H37.1174V18.606L47.8829 33.8111L63 22.9829L52.2345 7.7778L37.1174 18.606V0Z" fill="url(#paint0_linear_632_4856)"/>
<defs>
<linearGradient id="paint0_linear_632_4856" x1="0.472499" y1="52.9667" x2="65.3698" y2="46.4674" gradientUnits="userSpaceOnUse">
<stop stop-color="#0392CE"/>
<stop offset="0.526042" stop-color="#0247FE"/>
<stop offset="1" stop-color="#3D01A4"/>
</linearGradient>
</defs>
</svg>
